<svg id="Layer_1" data-name="Layer 1" xmlns="http://www.w3.org/2000/svg" viewBox="0 0 3534.07 3498.89"><defs><style>.cls-1{fill:#1a1a1a;fill-rule:evenodd;}</style></defs><path class="cls-1" d="M1390.32,2608.37c-522.6-116.56-7.49-904.33,494.73-818.28C1704.44,1658.16,919.14,1644,919.14,1644,1055.78,1501.11,1706,1521.52,1706,1521.52c-53.4-142.92-361.24-262.28-375.38-268.57s651.8,29.84,673.79,20.42-95.81-182.19-86.39-180.62,395.8,119.37,395.8,119.37l45.54-67.54,177.47,282.71c-88-117.8-168.05-146.07-168.05-146.07L2043.68,1187l197.9,243.44c262.28,3.14,791.57,246.58,791.57,246.58l-320.39-25.13,475.89,105.23c-157.07,26.7-62.83,142.92-62.83,142.92,73.82,44,56.54,122.51,56.54,122.51-153.92,194.75-596.82,69.11-596.82,69.11-353.39-117.8-471.18,55-471.18,55-337.68,607.81,301.55,571.69,301.55,571.69-318.83-66-147.64-226.16-116.22-193.18s193.18,224.59,51.83-70.68,9.43-168,9.43-168c273.27,152.35,480.59,56.54,480.59,56.54,245-56.54,636.09-442.91,636.09-442.91,98.95-102.09,37.69-175.9,37.69-175.9-59.67-119.37-772.73-267-772.73-267-135.07-47.12-163.34-301.56-163.34-301.56,9.43-248.15-411.49-365.94-411.49-365.94-94.23-263.86,304.69-621.95,304.69-621.95-490-150.78-669.07,493.16-669.07,493.16L1935.31,1.19c-427.2-31.41-700.48,568.56-700.48,568.56C1150,192.8,820.19,268.19,820.19,268.19c386.36,113.08,271.71,380.08,271.71,380.08L828,484.93l44,150.78c-474.31,62.82-741.31,921.93-741.31,921.93C297.19,1375.46,649,1347.18,649,1347.18-331,1928.31,89.87,2817.26,89.87,2817.26c-87.95-285.85,150.78-483.75,150.78-483.75-69.11,75.39-62.83,326.69-62.83,326.69,72.25-317.26,383.23-477.46,383.23-477.46-609.39,813.56,593.68,1005.18,593.68,1005.18-273.28-169.63-191.61-427.2-191.61-427.2s185.33,345.53,606.24,345.53,1168.53,392.64,1168.53,392.64c-151.12-217.17-1077.43-551.27-1077.43-551.27,373.8-66,697.34,191.61,697.34,191.61-307.84-395.79-444.88-414.3-967.48-530.86"/></svg>